<?xml version="1.0" standalone="no"?>
<!DOCTYPE svg PUBLIC "-//W3C//DTD SVG 20010904//EN"
 "http://www.w3.org/TR/2001/REC-SVG-20010904/DTD/svg10.dtd">
<svg version="1.0" xmlns="http://www.w3.org/2000/svg"
 width="235.000000pt" height="235.000000pt" viewBox="0 0 235.000000 235.000000"
 preserveAspectRatio="xMidYMid meet">
<metadata>
Created by potrace 1.11, written by Peter Selinger 2001-2013
</metadata>
<g transform="translate(0.000000,235.000000) scale(0.100000,-0.100000)"
fill="#000000" stroke="none">
<path d="M89 1983 c-3 -62 2 -436 5 -442 5 -8 83 -8 89 0 2 2 9 39 16 82 7 43
19 98 28 124 19 55 79 118 119 126 39 7 404 9 404 2 0 -5 -221 -280 -597 -744
l-103 -126 0 -62 0 -63 475 0 c261 0 475 3 476 8 0 4 2 14 3 22 7 36 29 317
30 380 l1 45 -50 3 c-49 3 -51 2 -53 -25 -4 -64 -36 -164 -65 -208 -18 -27
-51 -59 -77 -74 -44 -25 -50 -26 -254 -29 l-210 -4 35 44 c20 23 127 160 240
303 223 284 209 267 272 345 144 181 146 185 146 250 l-1 60 -464 0 c-435 0
-464 -1 -465 -17z"/>
<path d="M1159 1988 c-1 -2 -2 -22 -4 -45 -2 -38 1 -43 19 -44 67 -2 104 -23
111 -63 3 -17 5 -210 3 -429 -3 -451 5 -411 -88 -432 -43 -11 -45 -12 -45 -50
l0 -40 390 -2 c230 -1 413 2 445 8 172 32 260 134 260 301 0 86 -14 136 -51
181 -32 39 -115 83 -176 93 l-42 6 60 30 c122 61 165 167 124 305 -29 98 -106
149 -255 169 -33 4 -750 16 -751 12z m709 -153 c49 -30 76 -93 69 -165 -6 -69
-28 -110 -71 -136 -26 -16 -57 -19 -188 -22 l-158 -4 0 177 0 177 158 -4 c135
-3 162 -6 190 -23z m59 -454 c59 -34 78 -77 77 -172 -2 -95 -28 -150 -89 -182
-36 -20 -59 -22 -217 -25 l-178 -4 0 207 0 207 183 -4 c170 -3 185 -5 224 -27z"/>
</g>
</svg>
